<svg xmlns="http://www.w3.org/2000/svg" width="180" height="36" viewBox="0 0 180 36" role="img" aria-labelledby="mmTitle">
  <title id="mmTitle">MicroMood</title>
  <!-- moon mark -->
  <defs>
    <radialGradient id="mmGlow" cx="50%" cy="40%">
      <stop offset="0%" stop-color="#fff"/>
      <stop offset="65%" stop-color="#eaf1ff"/>
      <stop offset="100%" stop-color="#cfe0ff"/>
    </radialGradient>
  </defs>
  <g transform="translate(0,3)">
    <circle cx="15" cy="15" r="13" fill="url(#mmGlow)"/>
    <circle cx="21" cy="15" r="13" fill="#0A0F1E"/>
    <circle cx="15" cy="15" r="13" fill="none" stroke="#8bd3ff" stroke-opacity=".35" stroke-width="1.5"/>
  </g>
  <!-- wordmark -->
  <g fill="#EAF1FF" transform="translate(40,4)">
    <path d="M0 24V0h4.4l7.5 14.1L19.5 0h4.4v24h-4V8.9l-7 12.6h-.3L4 8.9V24H0z"/>
    <path d="M28.8 12c0-6.9 5-12 11.7-12S52.2 5.1 52.2 12s-5 12-11.7 12S28.8 18.9 28.8 12zm19 0c0-4.8-3.3-8.2-7.4-8.2s-7.4 3.4-7.4 8.2 3.3 8.2 7.4 8.2 7.4-3.4 7.4-8.2z"/>
    <path d="M58 24V0h4v24h-4z"/>
    <path d="M67.2 12c0-6.9 5-12 11.7-12S90.6 5.1 90.6 12s-5 12-11.7 12S67.2 18.9 67.2 12zm19 0c0-4.8-3.3-8.2-7.4-8.2s-7.4 3.4-7.4 8.2 3.3 8.2 7.4 8.2 7.4-3.4 7.4-8.2z"/>
    <path d="M96.4 24V0h4v9.1c1.6-1.9 3.9-3.1 6.8-3.1 5.3 0 9 4 9 9.9 0 6-3.7 10-9 10-2.9 0-5.2-1.2-6.8-3.1V24h-4zm15.2-4c3.5 0 5.8-2.7 5.8-6.9 0-4.2-2.3-6.9-5.8-6.9-2.7 0-5 1.6-6 4v5.8c1 2.4 3.3 4 6 4z"/>
  </g>
</svg>
